# xmcd CD database file
#
# Track frame offsets:
#	150
#	20994
#	59655
#	97657
#	132932
#	154185
#	177800
#	217100
#	263975
#
# Disc length: 3995 seconds
#
# Revision: 0
# Processed by: cddbd v1.5.2PL0 Copyright (c) Steve Scherf et al.
# Submitted via: CDex 1.70beta2
#
DISCID=810f9909
DTITLE=渋さ知らズ - 渋響
DYEAR=2007
DGENRE=Jazz
TTITLE0=Fight on the corner 
TTITLE1=鰤風
TTITLE2=a song for One 
TTITLE3=Dust song
TTITLE4=有限会社中嶋材木店
TTITLE5=P-Chan 
TTITLE6=We are a Fishman Band 
TTITLE7=a theme for Inuhime 
TTITLE8=a theme for Inuhime 
EXTD=YEAR: 2007
EXTT0=
EXTT1=
EXTT2=
EXTT3=
EXTT4=
EXTT5=
EXTT6=
EXTT7=
EXTT8=
PLAYORDER=
